<svg width="40" height="24" viewBox="0 0 40 24" fill="none" xmlns="http://www.w3.org/2000/svg">
<g clip-path="url(#clip0_301_22)">
<path d="M32.1 -82.8C29.3 -82.8 27.1 -80.6 27.1 -77.8V-7.10004C27 -5.10004 26.9 -3.10004 26.8 -1.10004C26.4 13.7 8.80001 21.1 0.100006 23C15.5 23 28.5 21.6 39.5 19.2H250.1C252.9 19.2 255.1 17 255.1 14.2V-77.8C255.1 -80.6 252.9 -82.8 250.1 -82.8H32.1Z" fill="white"/>
<path d="M39.9 18.7H39.5H39.4727H39.4C29.4 20.9 17.7 22.2 3.99999 22.4C7.99999 21.1 12.7 19.1 16.8 16.1C22.1 12.3 26.5 7.10002 27.2 0.200024C26.9 0.100024 26.5 2.44156e-05 26.2 -0.0999756C25.6 6.50002 21.4 11.6 16.2 15.3C10.7 19.2 4.19999 21.5 -0.100006 22.4L0.0999939 23V23.5C15.5 23.5 28.5 22.1 39.6 19.7L39.9 19.6837C39.9 19.3837 39.9 18.7 39.9 18.7Z" fill="#FF9E4C"/>
<path d="M0.1 23V23.5H0V23V22.5L0.1 23Z" fill="#FF9E4C"/>
</g>
<defs>
<clipPath id="clip0_301_22">
<rect width="39.9" height="23.5" fill="white"/>
</clipPath>
</defs>
</svg>
